HIERARCHY
ROOT hip
{
  OFFSET 5.51535 103.731 -2.80141
  CHANNELS 6 Xposition Yposition Zposition Zrotation Xrotation Yrotation
  JOINT abdomen
  {
    OFFSET 0 -1.186 -1.5018
    CHANNELS 6 Xposition Yposition Zposition Zrotation Xrotation Yrotation
    JOINT abdomen2
    {
      OFFSET 0 9.964 0.2134
      CHANNELS 6 Xposition Yposition Zposition Zrotation Xrotation Yrotation
      JOINT chest
      {
        OFFSET 0 13.134 -3.2573
        CHANNELS 6 Xposition Yposition Zposition Zrotation Xrotation Yrotation
        JOINT neck
        {
          OFFSET 0 20.686 -1.6905
          CHANNELS 6 Xposition Yposition Zposition Zrotation Xrotation Yrotation
          JOINT head
          {
            OFFSET 0 7.23801 -0.1237
            CHANNELS 6 Xposition Yposition Zposition Zrotation Xrotation Yrotation
            End Site
            {
              OFFSET 0 0 0
            }
          }
        }
        JOINT lCollar
        {
          OFFSET 1.7069 20.075 5.0056
          CHANNELS 6 Xposition Yposition Zposition Zrotation Xrotation Yrotation
          JOINT lShldr
          {
            OFFSET 13.6458 -0.0470195 -4.849
            CHANNELS 6 Xposition Yposition Zposition Zrotation Xrotation Yrotation
            JOINT lForeArm
            {
              OFFSET 28.3255 -0.97589 2.2888
              CHANNELS 6 Xposition Yposition Zposition Zrotation Xrotation Yrotation
              JOINT lHand
              {
                OFFSET 22.1583 -0.529998 10.8316
                CHANNELS 6 Xposition Yposition Zposition Zrotation Xrotation Yrotation
                JOINT lThumb1
                {
                  OFFSET 0.786 0.111997 2.5817
                  CHANNELS 6 Xposition Yposition Zposition Zrotation Xrotation Yrotation
                  JOINT lThumb2
                  {
                    OFFSET 0.360097 -0.877999 4.2331
                    CHANNELS 6 Xposition Yposition Zposition Zrotation Xrotation Yrotation
                    JOINT lThumb2_End
                    {
                      OFFSET 1.8127 -1.21601 2.2227
                      CHANNELS 6 Xposition Yposition Zposition Zrotation Xrotation Yrotation
                      End Site
                      {
                        OFFSET 0.0180981 -0.012195 0.0222007
                      }
                    }
                  }
                }
                JOINT lCarpal1
                {
                  OFFSET 0.9571 1.114 1.7695
                  CHANNELS 6 Xposition Yposition Zposition Zrotation Xrotation Yrotation
                  JOINT lIndex1
                  {
                    OFFSET 4.12461 0.486992 4.1451
                    CHANNELS 6 Xposition Yposition Zposition Zrotation Xrotation Yrotation
                    JOINT lIndex2
                    {
                      OFFSET 3.4052 -1.45401 2.7682
                      CHANNELS 6 Xposition Yposition Zposition Zrotation Xrotation Yrotation
                      JOINT lIndex2_End
                      {
                        OFFSET 1.45309 -1.79499 1.2713
                        CHANNELS 6 Xposition Yposition Zposition Zrotation Xrotation Yrotation
                        End Site
                        {
                          OFFSET 0.0144979 -0.0179083 0.0126995
                        }
                      }
                    }
                  }
                  JOINT lMid1
                  {
                    OFFSET 5.6954 0.209987 2.1184
                    CHANNELS 6 Xposition Yposition Zposition Zrotation Xrotation Yrotation
                    JOINT lMid2
                    {
                      OFFSET 3.9766 -1.53999 2.3863
                      CHANNELS 6 Xposition Yposition Zposition Zrotation Xrotation Yrotation
                      JOINT lMid2_End
                      {
                        OFFSET 1.4042 -1.926 1.125
                        CHANNELS 6 Xposition Yposition Zposition Zrotation Xrotation Yrotation
                        End Site
                        {
                          OFFSET 0.013999 -0.0193044 0.011301
                        }
                      }
                    }
                  }
                }
                JOINT lCarpal2
                {
                  OFFSET 2.0956 0.66 -0.3894
                  CHANNELS 6 Xposition Yposition Zposition Zrotation Xrotation Yrotation
                  JOINT lRing1
                  {
                    OFFSET 5.0395 -0.090013 2.4971
                    CHANNELS 6 Xposition Yposition Zposition Zrotation Xrotation Yrotation
                    JOINT lRing2
                    {
                      OFFSET 3.7921 -1.55199 1.4806
                      CHANNELS 6 Xposition Yposition Zposition Zrotation Xrotation Yrotation
                      JOINT lRing2_End
                      {
                        OFFSET 1.4655 -1.808 0.9609
                        CHANNELS 6 Xposition Yposition Zposition Zrotation Xrotation Yrotation
                        End Site
                        {
                          OFFSET 0.0147015 -0.0181014 0.00959957
                        }
                      }
                    }
                  }
                  JOINT lPinky1
                  {
                    OFFSET 4.9141 -1.269 0.3591
                    CHANNELS 6 Xposition Yposition Zposition Zrotation Xrotation Yrotation
                    JOINT lPinky2
                    {
                      OFFSET 3.1477 -1.685 0.8462
                      CHANNELS 6 Xposition Yposition Zposition Zrotation Xrotation Yrotation
                      JOINT lPinky2_End
                      {
                        OFFSET 0.805498 -1.58501 0.795499
                        CHANNELS 6 Xposition Yposition Zposition Zrotation Xrotation Yrotation
                        End Site
                        {
                          OFFSET 0.00809703 -0.0157944 0.00799848
                        }
                      }
                    }
                  }
                }
              }
            }
          }
        }
        JOINT rCollar
        {
          OFFSET -1.7069 20.075 5.0056
          CHANNELS 6 Xposition Yposition Zposition Zrotation Xrotation Yrotation
          JOINT rShldr
          {
            OFFSET -13.6458 -0.0470107 -4.849
            CHANNELS 6 Xposition Yposition Zposition Zrotation Xrotation Yrotation
            JOINT rForeArm
            {
              OFFSET -28.3255 -0.975895 2.2888
              CHANNELS 6 Xposition Yposition Zposition Zrotation Xrotation Yrotation
              JOINT rHand
              {
                OFFSET -22.1583 -0.530007 10.8316
                CHANNELS 6 Xposition Yposition Zposition Zrotation Xrotation Yrotation
                JOINT rThumb1
                {
                  OFFSET -0.785997 0.112005 2.5817
                  CHANNELS 6 Xposition Yposition Zposition Zrotation Xrotation Yrotation
                  JOINT rThumb2
                  {
                    OFFSET -0.360106 -0.877994 4.2331
                    CHANNELS 6 Xposition Yposition Zposition Zrotation Xrotation Yrotation
                    JOINT rThumb2_End
                    {
                      OFFSET -1.8127 -1.216 2.2227
                      CHANNELS 6 Xposition Yposition Zposition Zrotation Xrotation Yrotation
                      End Site
                      {
                        OFFSET -0.0180972 -0.0121973 0.0222005
                      }
                    }
                  }
                }
                JOINT rCarpal1
                {
                  OFFSET -0.9571 1.114 1.7695
                  CHANNELS 6 Xposition Yposition Zposition Zrotation Xrotation Yrotation
                  JOINT rIndex1
                  {
                    OFFSET -4.1246 0.487011 4.1451
                    CHANNELS 6 Xposition Yposition Zposition Zrotation Xrotation Yrotation
                    JOINT rIndex2
                    {
                      OFFSET -3.4052 -1.45401 2.7682
                      CHANNELS 6 Xposition Yposition Zposition Zrotation Xrotation Yrotation
                      JOINT rIndex2_End
                      {
                        OFFSET -1.4531 -1.795 1.2713
                        CHANNELS 6 Xposition Yposition Zposition Zrotation Xrotation Yrotation
                        End Site
                        {
                          OFFSET -0.0145077 -0.0180048 0.0127017
                        }
                      }
                    }
                  }
                  JOINT rMid1
                  {
                    OFFSET -5.6954 0.210002 2.1184
                    CHANNELS 6 Xposition Yposition Zposition Zrotation Xrotation Yrotation
                    JOINT rMid2
                    {
                      OFFSET -3.9766 -1.54 2.3863
                      CHANNELS 6 Xposition Yposition Zposition Zrotation Xrotation Yrotation
                      JOINT rMid2_End
                      {
                        OFFSET -1.4042 -1.926 1.125
                        CHANNELS 6 Xposition Yposition Zposition Zrotation Xrotation Yrotation
                        End Site
                        {
                          OFFSET -0.0139948 -0.0192916 0.0112994
                        }
                      }
                    }
                  }
                }
                JOINT rCarpal2
                {
                  OFFSET -2.0956 0.66 -0.3894
                  CHANNELS 6 Xposition Yposition Zposition Zrotation Xrotation Yrotation
                  JOINT rRing1
                  {
                    OFFSET -5.03951 -0.0899879 2.4971
                    CHANNELS 6 Xposition Yposition Zposition Zrotation Xrotation Yrotation
                    JOINT rRing2
                    {
                      OFFSET -3.7921 -1.55201 1.4806
                      CHANNELS 6 Xposition Yposition Zposition Zrotation Xrotation Yrotation
                      JOINT rRing2_End
                      {
                        OFFSET -1.4655 -1.808 0.960901
                        CHANNELS 6 Xposition Yposition Zposition Zrotation Xrotation Yrotation
                        End Site
                        {
                          OFFSET -0.0146934 -0.0180999 0.00959832
                        }
                      }
                    }
                  }
                  JOINT rPinky1
                  {
                    OFFSET -4.91411 -1.26899 0.359202
                    CHANNELS 6 Xposition Yposition Zposition Zrotation Xrotation Yrotation
                    JOINT rPinky2
                    {
                      OFFSET -3.14769 -1.68501 0.846199
                      CHANNELS 6 Xposition Yposition Zposition Zrotation Xrotation Yrotation
                      JOINT rPinky2_End
                      {
                        OFFSET -0.805498 -1.585 0.7955
                        CHANNELS 6 Xposition Yposition Zposition Zrotation Xrotation Yrotation
                        End Site
                        {
                          OFFSET -0.00810035 -0.0158035 0.00800029
                        }
                      }
                    }
                  }
                }
              }
            }
          }
        }
      }
    }
  }
  JOINT lThigh
  {
    OFFSET 8.367 -8.2066 0.5982
    CHANNELS 6 Xposition Yposition Zposition Zrotation Xrotation Yrotation
    JOINT lShin
    {
      OFFSET 2.1923 -43.463 -0.4932
      CHANNELS 6 Xposition Yposition Zposition Zrotation Xrotation Yrotation
      JOINT lFoot
      {
        OFFSET 0.733301 -45.8593 -2.6451
        CHANNELS 6 Xposition Yposition Zposition Zrotation Xrotation Yrotation
        End Site
        {
          OFFSET 2.6618 -4.2699 12.3931
        }
      }
    }
  }
  JOINT rThigh
  {
    OFFSET -8.367 -8.2066 0.5982
    CHANNELS 6 Xposition Yposition Zposition Zrotation Xrotation Yrotation
    JOINT rShin
    {
      OFFSET -2.1923 -43.463 -0.4931
      CHANNELS 6 Xposition Yposition Zposition Zrotation Xrotation Yrotation
      JOINT rFoot
      {
        OFFSET -0.733299 -45.8593 -2.6451
        CHANNELS 6 Xposition Yposition Zposition Zrotation Xrotation Yrotation
        End Site
        {
          OFFSET -2.6618 -4.2699 12.3931
        }
      }
    }
  }
}
MOTION
Frames:	4
Frame Time:	0.0333333
16.8686 32.5874 -48.0709 12.8006 10.1769 -55.1353 -5.10976e-008 -1.186 -1.5018 -0.153251 -2.78441 1.52608 -5.23845e-007 9.964 0.213398 -0.232527 -5.57192 3.05012 5.3605e-007 13.134 -3.2573 -0.232529 -5.57192 3.0501 -3.94365e-006 20.6863 -1.69051 0.173822 0.714272 -4.39518 1.34424e-006 7.23802 -0.1237 6.57726 -0.317226 -2.25094 1.7069 20.075 5.0056 2.96038 -2.0202 -17.7981 13.6458 -0.0470102 -4.849 -53.8109 -1.54975 -47.6139 28.3255 -0.975902 2.2888 -11.6204 -14.7454 -44.9637 22.1583 -0.529985 10.8316 -0.292556 -23.3463 9.31 0.786004 0.111997 2.5817 29.0017 36.8211 -34.7961 0.360099 -0.877997 4.2331 -6.33704 -0.117336 -11.5742 1.8127 -1.21601 2.2227 6.48484 1.48414 12.0601 0.9571 1.114 1.7695 -6.36111e-015 7.95139e-016 -2.38542e-015 4.1246 0.486992 4.1451 -4.88727 4.53868 12.6178 3.4052 -1.45401 2.7682 -36.3635 10.033 17.8993 1.4531 -1.79499 1.2713 -37.4307 10.1388 18.4808 5.6954 0.209988 2.1184 -1.587 -0.577041 1.618 3.9766 -1.53999 2.3863 -43.8283 12.1761 22.7531 1.4042 -1.926 1.125 -9.03164 4.0687 4.02202 2.0956 0.66 -0.3894 -6.36111e-015 7.95139e-016 -2.38542e-015 5.0395 -0.0900133 2.4971 -8.44085 -1.94815 5.79527 3.7921 -1.55199 1.4806 -14.2679 6.48284 7.41473 1.4655 -1.808 0.960903 -15.7293 7.01834 8.2342 4.9141 -1.269 0.359102 10.4039 -12.5936 2.33182 3.1477 -1.685 0.846202 -18.2185 8.51743 9.60863 0.805498 -1.58501 0.795503 -8.80546 4.5937 4.39816 -1.7069 20.075 5.0056 -6.93189 -1.06535 30.815 -13.6458 -0.0470144 -4.849 36.8961 -29.404 55.5018 -28.3255 -0.975886 2.2888 20.2678 1.34456 36.006 -22.1583 -0.530008 10.8316 -36.4383 -49.5689 -33.1914 -0.786002 0.112005 2.5817 -29.9217 33.5002 36.3092 -0.360106 -0.877993 4.2331 3.27636 -2.39822 9.40455 -1.81269 -1.216 2.2227 -4.44362 5.02819 -15.268 -0.9571 1.114 1.7695 -4.41391e-032 -1.59028e-015 -1.59028e-015 -4.12461 0.487012 4.1451 13.181 6.35506 -12.1375 -3.4052 -1.45401 2.7682 44.351 10.8049 -10.7983 -1.4531 -1.795 1.2713 45.4781 10.9508 -11.16 -5.6954 0.210002 2.1184 7.07149 1.28856 -2.16559 -3.9766 -1.54 2.3863 52.3089 13.5301 -14.1044 -1.4042 -1.926 1.125 15.1721 5.3223 -2.78763 -2.0956 0.66 -0.3894 -4.41391e-032 -1.59028e-015 -1.59028e-015 -5.03951 -0.0899866 2.4971 14.4791 -0.343195 -5.30928 -3.7921 -1.55201 1.4806 20.9794 7.69288 -5.18752 -1.4655 -1.808 0.960897 22.5759 8.18064 -5.68281 -4.91411 -1.26899 0.359203 -6.22066 -8.666 -6.14889 -3.1477 -1.68501 0.846198 25.2632 9.75602 -6.40172 -0.805501 -1.58499 0.795497 14.9452 6.18834 -3.30336 8.367 -8.2066 0.5982 57.7133 -35.321 38.4914 2.1923 -43.463 -0.493207 -179.753 35.5721 -175.614 0.733292 -45.8593 -2.64509 10.3891 18.5889 -40.9318 -8.367 -8.2066 0.598201 -53.9898 -29.2393 -19.0635 -2.19221 -43.463 -0.493064 163.883 33.5753 -154.39 -0.733301 -45.8593 -2.64509 -4.1963 26.4733 42.7311 
16.8191 32.6728 -48.004 12.625 10.3573 -54.8612 6.60869e-007 -1.186 -1.5018 -0.188731 -2.62963 1.3474 -9.37751e-007 9.964 0.213399 -0.315934 -5.26295 2.69039 -1.39401e-006 13.134 -3.2573 -0.315934 -5.26295 2.69039 -1.43239e-006 20.686 -1.6905 0.0640573 0.91085 -4.40923 4.64956e-007 7.23801 -0.123699 6.75348 -0.0222468 -1.91962 1.7069 20.075 5.0056 3.83672 -2.01124 -17.778 13.6458 -0.0470133 -4.849 -54.5096 -1.56507 -47.3084 28.3255 -0.975893 2.2888 -13.1362 -15.5558 -47.0829 22.1583 -0.529989 10.8316 1.12113 -21.2318 10.1218 0.786004 0.111998 2.5817 29.0017 36.8211 -34.7961 0.360097 -0.878001 4.2331 -6.33704 -0.117357 -11.5742 1.8127 -1.21601 2.2227 6.48485 1.48412 12.0601 0.9571 1.114 1.7695 3.18055e-015 -7.95139e-016 -3.18055e-015 4.1246 0.486993 4.14511 -4.88728 4.53865 12.6178 3.4052 -1.454 2.7682 -36.3635 10.0329 17.8993 1.4531 -1.79499 1.2713 -37.4308 10.1388 18.4808 5.6954 0.209988 2.1184 -1.587 -0.577056 1.618 3.9766 -1.53999 2.3863 -43.8283 12.1761 22.7531 1.4042 -1.926 1.125 -9.03165 4.06872 4.02201 2.0956 0.66 -0.3894 3.18055e-015 -7.95139e-016 -3.18055e-015 5.0395 -0.0900122 2.4971 -8.44085 -1.94818 5.79527 3.7921 -1.55199 1.4806 -14.2679 6.48283 7.41474 1.4655 -1.808 0.9609 -15.7293 7.01836 8.2342 4.9141 -1.269 0.359103 10.4039 -12.5937 2.33184 3.1477 -1.685 0.846197 -18.2185 8.51744 9.60863 0.805497 -1.58501 0.795502 -8.80546 4.5937 4.39816 -1.7069 20.075 5.0056 -7.65249 -1.33322 29.3868 -13.6458 -0.0470129 -4.849 37.581 -28.9638 57.1657 -28.3255 -0.975891 2.2888 19.8755 1.12344 36.1129 -22.1583 -0.530013 10.8316 -36.1282 -50.7171 -33.3801 -0.786001 0.112005 2.5817 -29.9123 33.5322 36.2843 -0.360107 -0.877993 4.2331 3.26907 -2.39379 9.38469 -1.8127 -1.216 2.2227 -4.44365 5.02822 -15.268 -0.9571 1.114 1.7695 0 2.38542e-015 -0 -4.12461 0.487011 4.1451 13.113 6.35259 -12.1365 -3.4052 -1.45401 2.7682 44.3339 10.8026 -10.7928 -1.4531 -1.795 1.2713 45.4781 10.9508 -11.1601 -5.6954 0.210002 2.1184 7.05596 1.29571 -2.17957 -3.9766 -1.54 2.3863 52.3089 13.5301 -14.1044 -1.4042 -1.926 1.125 15.2223 5.33837 -2.79903 -2.0956 0.66 -0.3894 0 2.38542e-015 -0 -5.03951 -0.0899875 2.4971 14.4895 -0.339944 -5.31103 -3.7921 -1.55201 1.4806 21.0081 7.70173 -5.19629 -1.4655 -1.808 0.9609 22.6041 8.18914 -5.69169 -4.91411 -1.26899 0.359203 -6.16537 -8.64853 -6.13556 -3.14769 -1.68501 0.846201 25.2816 9.76179 -6.40775 -0.8055 -1.585 0.795496 14.9724 6.19858 -3.31073 8.36701 -8.20661 0.598201 58.1141 -35.4073 38.7106 2.19229 -43.463 -0.493208 -179.766 35.61 -175.534 0.733296 -45.8593 -2.6451 10.4894 18.6732 -40.9123 -8.36701 -8.20661 0.598203 -53.3663 -29.152 -18.9448 -2.19237 -43.463 -0.49315 163.842 33.8137 -154.623 -0.733296 -45.8593 -2.64508 -4.01524 26.4767 42.3293 
16.7335 32.7888 -47.9036 12.296 10.5169 -54.6472 2.0114e-006 -1.186 -1.5018 -0.229533 -2.44984 1.15501 1.34774e-006 9.964 0.2134 -0.410091 -4.9038 2.30334 1.25624e-006 13.134 -3.2573 -0.410092 -4.9038 2.30334 1.72966e-007 20.686 -1.6905 -0.0108115 0.946809 -4.46365 -7.33258e-007 7.23802 -0.123702 6.99489 0.396135 -1.58321 1.7069 20.075 5.0056 5.23069 -2.03335 -17.913 13.6458 -0.0470091 -4.849 -55.2586 -2.13198 -46.3654 28.3255 -0.975893 2.2888 -15.1354 -15.2275 -49.7519 22.1583 -0.529992 10.8316 3.17099 -19.8006 10.8958 0.786004 0.111997 2.5817 29.0017 36.8211 -34.7961 0.360097 -0.878001 4.2331 -6.33707 -0.117372 -11.5742 1.8127 -1.21601 2.2227 6.48486 1.48413 12.0601 0.9571 1.114 1.7695 3.18055e-015 -7.95139e-016 -1.59028e-015 4.1246 0.486991 4.1451 -4.8873 4.53864 12.6178 3.4052 -1.45401 2.7682 -36.3635 10.0329 17.8993 1.4531 -1.79499 1.2713 -37.4308 10.1388 18.4808 5.6954 0.209988 2.1184 -1.58701 -0.577062 1.618 3.9766 -1.53999 2.3863 -43.8284 12.1761 22.7531 1.4042 -1.926 1.125 -9.03166 4.06871 4.02201 2.0956 0.66 -0.3894 3.18055e-015 -7.95139e-016 -1.59028e-015 5.0395 -0.0900132 2.4971 -8.44086 -1.94817 5.79528 3.7921 -1.55199 1.4806 -14.2679 6.48283 7.41475 1.4655 -1.808 0.960897 -15.7294 7.01837 8.23421 4.9141 -1.269 0.359099 10.4039 -12.5937 2.33182 3.1477 -1.685 0.846202 -18.2186 8.51744 9.60865 0.805498 -1.58501 0.795498 -8.80549 4.5937 4.39818 -1.7069 20.075 5.0056 -9.18493 -1.60116 27.497 -13.6458 -0.0470124 -4.849 38.9748 -28.1906 59.2881 -28.3255 -0.975896 2.28881 18.7391 0.142513 36.5759 -22.1583 -0.530007 10.8316 -34.8238 -52.1818 -33.4687 -0.786001 0.112006 2.5817 -29.8848 33.626 36.2111 -0.360106 -0.877992 4.2331 3.24779 -2.38069 9.32646 -1.8127 -1.216 2.2227 -4.44368 5.02826 -15.268 -0.9571 1.114 1.7695 9.54166e-015 -1.59028e-015 -0 -4.12461 0.487012 4.1451 12.9135 6.34522 -12.1337 -3.4052 -1.45401 2.7682 44.3168 10.8003 -10.7874 -1.4531 -1.795 1.2713 45.4781 10.9508 -11.1601 -5.69541 0.210003 2.1184 7.01047 1.31672 -2.22065 -3.9766 -1.54 2.3863 52.3089 13.5301 -14.1044 -1.4042 -1.926 1.125 15.3695 5.38552 -2.83257 -2.0956 0.66 -0.3894 9.54166e-015 -1.59028e-015 -0 -5.03951 -0.0899861 2.4971 14.4999 -0.336679 -5.31278 -3.7921 -1.55201 1.4806 21.0924 7.72785 -5.2222 -1.4655 -1.808 0.960901 22.6868 8.21392 -5.71777 -4.91411 -1.26899 0.359205 -6.00312 -8.59739 -6.09652 -3.1477 -1.68501 0.846199 25.3001 9.76758 -6.41379 -0.805499 -1.585 0.795502 15.0712 6.24044 -3.33949 8.367 -8.2066 0.598201 58.4993 -35.2926 38.8393 2.1923 -43.463 -0.49319 -179.778 35.6298 -175.431 0.73331 -45.8593 -2.64511 10.3399 19.0091 -40.5624 -8.367 -8.2066 0.5982 -52.4114 -29.1363 -18.5852 -2.19227 -43.463 -0.493085 163.768 34.0689 -154.728 -0.733288 -45.8593 -2.6451 -4.1115 26.2773 41.9037 
16.6123 33.0066 -47.7279 12.0554 10.6548 -54.3688 -1.05652e-006 -1.186 -1.5018 -0.293701 -2.29143 0.97689 1.1215e-006 9.964 0.213401 -0.548879 -4.58752 1.94433 -2.66586e-007 13.134 -3.2573 -0.548885 -4.58752 1.94433 -8.92234e-006 20.6862 -1.69052 -0.0891844 1.27189 -4.5423 -3.49309e-007 7.23802 -0.123701 7.02861 0.505036 -1.11021 1.7069 20.075 5.0056 5.94658 -2.0754 -18.1185 13.6458 -0.0470116 -4.84901 -56.4919 -1.2979 -45.616 28.3255 -0.975895 2.2888 -17.0985 -16.8514 -52.7907 22.1583 -0.529985 10.8316 4.64255 -15.8995 11.6623 0.786004 0.111997 2.5817 29.0018 36.8212 -34.7962 0.360097 -0.878 4.2331 -6.3371 -0.11743 -11.5742 1.8127 -1.21601 2.2227 6.48486 1.48412 12.0601 0.9571 1.114 1.7695 -5.51738e-033 -7.95139e-016 -3.97569e-016 4.1246 0.486994 4.1451 -4.8873 4.53864 12.6178 3.4052 -1.454 2.7682 -36.3635 10.033 17.8993 1.4531 -1.79499 1.2713 -37.4308 10.1388 18.4808 5.6954 0.209988 2.11841 -1.58701 -0.577065 1.61799 3.9766 -1.53999 2.3863 -43.8283 12.1761 22.7531 1.4042 -1.926 1.125 -9.03166 4.06871 4.022 2.0956 0.66 -0.3894 -5.51738e-033 -7.95139e-016 -3.97569e-016 5.0395 -0.0900124 2.49711 -8.44085 -1.94818 5.79527 3.7921 -1.55199 1.4806 -14.2679 6.48281 7.41475 1.4655 -1.808 0.9609 -15.7294 7.01838 8.23421 4.9141 -1.269 0.359101 10.4039 -12.5937 2.33183 3.1477 -1.685 0.846204 -18.2185 8.51743 9.60863 0.805498 -1.58501 0.7955 -8.80548 4.59369 4.39819 -1.7069 20.075 5.0056 -10.1117 -1.72057 25.8296 -13.6458 -0.0470185 -4.84901 39.4023 -28.2873 60.9668 -28.3255 -0.975893 2.2888 18.9 -0.761454 36.9587 -22.1583 -0.530006 10.8316 -33.2345 -53.4664 -33.0933 -0.786001 0.112005 2.5817 -29.8395 33.7783 36.0919 -0.360106 -0.877994 4.2331 3.21318 -2.35942 9.23178 -1.8127 -1.216 2.2227 -4.44372 5.02835 -15.2679 -0.9571 1.114 1.7695 -3.31043e-032 -2.38542e-015 -7.95139e-016 -4.1246 0.487011 4.1451 12.5894 6.33302 -12.1295 -3.4052 -1.45401 2.7682 44.2752 10.7948 -10.7741 -1.4531 -1.795 1.2713 45.4781 10.9509 -11.1601 -5.6954 0.21 2.1184 6.93667 1.35088 -2.28737 -3.9766 -1.54 2.3863 52.3089 13.5301 -14.1044 -1.4042 -1.926 1.125 15.6089 5.46186 -2.88741 -2.0956 0.66 -0.3894 -3.31043e-032 -2.38542e-015 -7.95139e-016 -5.03951 -0.0899869 2.4971 14.5103 -0.333401 -5.31451 -3.7921 -1.55201 1.4806 21.2293 7.7701 -5.2643 -1.4655 -1.808 0.960902 22.8458 8.26144 -5.7679 -4.91411 -1.26899 0.359203 -5.73943 -8.51436 -6.0335 -3.1477 -1.68501 0.846195 25.3528 9.78407 -6.43109 -0.8055 -1.585 0.795497 15.17 6.28223 -3.36833 8.367 -8.2066 0.5982 58.6222 -35.3241 39.01 2.19229 -43.463 -0.493209 -179.787 35.7761 -175.377 0.733297 -45.8593 -2.6451 10.1781 19.1799 -40.1227 -8.367 -8.2066 0.598205 -51.6462 -29.1368 -18.3937 -2.1922 -43.463 -0.493029 163.648 34.3956 -154.74 -0.733289 -45.8593 -2.6451 -3.64741 26.1439 41.1624 
